<?xml version="1.0" standalone="no"?>
<!DOCTYPE svg PUBLIC "-//W3C//DTD SVG 20010904//EN"
 "http://www.w3.org/TR/2001/REC-SVG-20010904/DTD/svg10.dtd">
<svg version="1.0" xmlns="http://www.w3.org/2000/svg"
 width="1380.000000pt" height="1219.000000pt" viewBox="0 0 1380.000000 1219.000000"
 preserveAspectRatio="xMidYMid meet">

<g transform="translate(0.000000,1219.000000) scale(0.100000,-0.100000)"
fill="#000000" stroke="none">
<path d="M3147 10300 c-134 -89 -245 -198 -287 -283 -42 -85 -58 -210 -41
-312 l12 -73 -52 -91 c-28 -50 -52 -91 -53 -91 -1 0 -2 43 -2 96 -1 91 -3 99
-43 179 -44 90 -142 203 -256 298 l-60 50 -7 -39 c-30 -175 -14 -385 39 -493
32 -66 130 -167 201 -207 29 -16 50 -33 48 -39 -3 -5 -29 -64 -59 -130 -30
-66 -60 -137 -68 -157 -17 -49 -29 -48 -29 0 0 46 -24 140 -50 199 -25 58
-124 160 -211 218 -72 48 -277 151 -285 142 -9 -9 25 -201 51 -292 66 -226
182 -348 390 -411 33 -10 61 -19 63 -20 2 -1 -19 -71 -46 -155 -27 -85 -55
-178 -62 -206 -8 -29 -17 -53 -21 -53 -4 0 -10 16 -13 35 -13 66 -86 194 -143
250 -92 91 -334 195 -529 229 l-32 5 13 -42 c85 -278 221 -481 371 -552 72
-34 194 -65 257 -65 49 0 49 0 42 -27 -8 -33 -65 -353 -65 -368 0 -5 -21 27
-47 73 -93 165 -215 248 -429 293 -81 17 -324 40 -324 31 0 -12 73 -142 118
-212 66 -101 197 -234 267 -271 75 -40 185 -61 300 -57 l97 3 -7 -95 c-4 -52
-10 -151 -14 -219 l-6 -124 -48 59 c-131 162 -279 216 -585 216 -90 0 -166 -2
-169 -6 -9 -8 74 -128 152 -219 118 -138 245 -224 365 -247 63 -12 188 -12
247 -1 l42 8 5 -61 c3 -34 10 -117 16 -186 5 -69 13 -150 17 -180 l6 -55 -71
66 c-128 118 -237 159 -430 159 -134 0 -380 -37 -406 -61 -13 -12 173 -194
266 -259 144 -102 245 -140 369 -140 80 0 182 17 256 44 23 8 44 12 47 8 2 -4
7 -27 11 -52 6 -40 73 -326 91 -388 6 -19 -6 -14 -72 34 -147 105 -226 130
-394 121 -58 -3 -139 -13 -180 -22 -112 -24 -291 -86 -287 -99 7 -22 201 -165
290 -214 130 -72 226 -102 325 -102 91 0 208 27 297 69 33 15 64 29 69 32 5 2
13 -9 19 -26 20 -66 111 -303 134 -348 13 -27 22 -51 20 -53 -2 -2 -30 11 -61
30 -195 117 -381 127 -643 35 -86 -31 -204 -86 -292 -137 l-43 -25 53 -34
c284 -182 580 -253 775 -188 95 32 177 73 238 120 27 20 49 35 50 33 2 -2 24
-43 51 -93 26 -49 74 -135 106 -191 33 -55 59 -103 59 -106 0 -3 -30 7 -67 22
-208 84 -377 70 -618 -51 -93 -47 -288 -169 -299 -188 -7 -11 146 -81 260
-119 257 -86 445 -87 609 -5 62 32 149 91 193 132 18 17 36 31 40 31 4 0 26
-29 49 -63 23 -34 85 -116 136 -182 52 -66 94 -121 93 -122 -1 -1 -31 5 -66
13 -92 22 -240 22 -315 0 -138 -41 -328 -163 -480 -308 l-77 -72 39 -14 c155
-54 367 -87 520 -79 188 8 298 60 449 213 l81 81 129 -126 c71 -70 161 -155
199 -190 51 -45 63 -61 45 -56 -51 13 -276 18 -331 6 -118 -26 -275 -122 -423
-261 -88 -82 -208 -222 -198 -231 4 -4 54 -15 112 -25 80 -15 152 -19 300 -18
179 0 202 2 277 25 45 14 107 41 139 60 75 44 199 168 254 252 23 37 45 67 48
67 2 0 34 -22 71 -49 90 -67 267 -182 341 -222 33 -19 60 -36 60 -40 0 -3 -34
-9 -75 -13 -102 -9 -237 -50 -306 -91 -121 -74 -286 -280 -389 -485 -74 -149
-78 -137 47 -128 199 15 427 75 553 145 80 45 150 110 202 185 41 61 118 213
118 234 0 7 4 24 10 38 l9 25 143 -66 c153 -70 310 -133 448 -178 72 -24 81
-30 60 -36 -14 -4 -38 -8 -55 -8 -57 -2 -190 -41 -265 -78 -102 -50 -249 -196
-348 -347 -79 -119 -199 -352 -188 -363 4 -4 61 -2 128 5 320 32 588 123 725
246 96 86 209 276 243 410 12 46 23 71 32 70 7 -1 92 -18 188 -38 96 -19 219
-41 273 -47 53 -7 97 -15 97 -18 0 -4 -31 -14 -68 -24 -38 -10 -113 -40 -168
-67 -105 -51 -186 -122 -259 -224 -51 -72 -131 -232 -171 -343 -34 -95 -84
-266 -84 -290 0 -26 278 63 447 142 270 128 390 254 472 501 28 83 56 243 49
273 -2 11 42 13 225 11 247 -1 306 12 105 25 -68 4 -166 12 -218 19 -86 10
-95 13 -92 31 20 142 10 281 -28 391 -50 144 -217 309 -463 455 -45 27 -85 49
-89 49 -14 0 -8 -201 7 -305 41 -268 126 -429 278 -525 55 -34 74 -56 40 -46
-10 3 -72 17 -138 31 -66 14 -180 42 -253 62 -108 30 -132 40 -128 52 3 9 19
54 35 101 53 151 59 298 17 417 -48 137 -192 350 -318 471 l-35 33 -27 -89
c-41 -135 -66 -291 -66 -417 0 -169 29 -257 129 -389 28 -36 46 -66 40 -66
-33 0 -468 190 -576 252 l-53 29 29 42 c63 92 112 210 131 318 27 150 -56 410
-207 643 -50 78 -44 80 -100 -29 -94 -184 -146 -369 -146 -520 1 -112 17 -171
78 -282 19 -35 31 -63 27 -63 -23 0 -442 285 -442 300 0 3 19 30 42 60 22 30
59 93 81 140 35 74 41 95 45 175 7 143 -27 282 -121 488 -20 42 -39 77 -44 77
-14 0 -101 -142 -152 -250 -90 -189 -109 -311 -68 -447 13 -46 22 -83 19 -83
-10 0 -120 98 -235 209 l-117 114 53 56 c64 67 130 176 151 250 24 81 20 216
-8 341 -25 112 -93 300 -107 300 -5 0 -38 -39 -74 -87 -75 -102 -168 -281
-190 -368 -19 -74 -19 -174 -1 -245 14 -53 13 -76 -2 -54 -4 6 -43 55 -88 110
-44 54 -100 125 -124 157 l-43 58 24 16 c13 9 58 50 99 92 125 127 158 224
147 434 -6 112 -35 289 -51 304 -12 12 -182 -173 -242 -263 -79 -118 -107
-205 -103 -313 2 -43 1 -77 -2 -75 -9 5 -148 243 -179 304 -17 33 -19 45 -10
48 36 12 127 66 176 104 109 84 172 219 200 428 14 106 19 230 9 230 -17 0
-178 -102 -239 -150 -163 -131 -231 -238 -248 -395 -3 -29 -4 -29 -27 20 -35
77 -131 323 -131 339 0 9 17 16 45 21 73 10 215 87 269 145 82 88 159 284 181
463 l7 58 -53 -21 c-96 -38 -177 -80 -252 -130 -132 -88 -191 -171 -226 -318
-10 -42 -21 -70 -24 -62 -19 51 -84 305 -112 436 -4 20 1 23 59 33 266 46 395
187 494 539 l21 73 -32 -7 c-66 -14 -185 -57 -263 -96 -155 -75 -243 -169
-282 -300 -9 -32 -20 -58 -23 -58 -4 0 -10 24 -14 53 -17 130 -35 306 -35 353
l0 51 68 6 c87 7 199 46 259 89 67 48 136 137 188 243 38 77 98 235 92 242 -4
4 -134 -27 -202 -47 -190 -59 -312 -147 -379 -276 l-37 -69 6 214 c3 117 8
217 11 222 2 4 17 3 32 -3 47 -20 229 -16 287 6 69 26 163 94 225 163 62 69
140 176 140 192 0 17 -259 14 -343 -4 -133 -28 -207 -75 -285 -180 l-45 -60 7
65 c9 82 52 340 58 346 3 2 33 -3 68 -12 43 -11 93 -15 159 -12 85 3 105 7
161 35 36 18 95 58 132 89 66 56 188 193 188 212 0 14 -105 25 -235 25 -188
-1 -282 -36 -387 -147 -32 -33 -58 -57 -58 -52 0 36 119 428 128 424 4 -2 31
-16 59 -31 71 -37 176 -60 235 -53 101 14 262 91 353 169 l39 34 -70 26 c-248
95 -406 88 -546 -24 -21 -17 -38 -26 -38 -22 0 21 148 373 156 373 2 0 28 -13
57 -29 81 -46 158 -64 247 -59 68 4 90 11 181 56 57 28 130 71 161 94 l57 43
-26 14 c-53 27 -165 61 -255 77 -138 24 -222 3 -331 -80 -26 -20 -47 -33 -47
-28 0 4 26 56 58 116 56 104 61 110 106 128 118 46 234 146 278 240 49 104 83
292 76 426 l-3 63 -108 -71z"/>
<path d="M10540 10267 c0 -240 59 -429 166 -526 58 -53 159 -115 207 -126 22
-6 37 -26 81 -109 77 -142 77 -144 24 -103 -93 70 -130 82 -258 82 -97 -1
-128 -5 -200 -28 -47 -15 -102 -35 -123 -45 l-38 -17 48 -36 c81 -60 165 -107
238 -135 121 -45 248 -31 372 42 25 14 46 24 48 22 12 -13 155 -355 155 -372
0 -2 -29 16 -65 40 -110 73 -192 88 -337 60 -77 -15 -248 -73 -248 -84 0 -13
113 -90 190 -131 99 -52 187 -75 261 -67 63 6 160 39 201 67 14 11 28 19 31
19 8 0 127 -404 127 -432 0 -5 -30 23 -66 62 -112 118 -200 146 -445 138 -91
-3 -154 -9 -161 -16 -8 -8 4 -30 49 -84 80 -97 182 -183 268 -224 65 -32 75
-34 175 -34 64 0 124 6 154 15 27 8 51 13 54 11 6 -6 49 -265 58 -346 l7 -65
-45 60 c-105 142 -202 183 -453 191 -88 3 -156 1 -164 -4 -11 -8 -5 -23 34
-79 78 -110 200 -225 281 -263 63 -31 77 -34 169 -34 55 -1 121 3 146 7 l47 8
7 -173 c4 -95 5 -193 3 -218 l-3 -45 -34 70 c-44 89 -107 150 -207 202 -89 46
-244 98 -322 109 l-52 7 24 -69 c78 -231 192 -391 319 -449 70 -32 161 -55
219 -55 l48 0 0 -47 c0 -90 -38 -413 -49 -413 -3 0 -14 27 -25 61 -40 130
-124 218 -284 298 -58 29 -201 80 -264 95 -26 6 -26 6 -17 -32 27 -100 66
-205 107 -287 85 -167 205 -255 391 -287 63 -11 70 -14 66 -32 -26 -126 -93
-385 -112 -436 -3 -8 -14 20 -24 64 -35 145 -97 229 -235 321 -60 40 -223 120
-266 130 -34 9 -35 -1 -12 -113 47 -234 129 -381 254 -462 55 -35 171 -80 206
-80 24 0 26 -3 20 -32 -6 -30 -116 -311 -139 -353 -8 -16 -13 -4 -28 68 -22
108 -52 162 -143 253 -79 78 -166 143 -268 199 l-68 37 0 -61 c0 -91 27 -279
51 -351 27 -84 54 -135 95 -187 37 -46 162 -134 219 -154 19 -7 35 -16 35 -20
0 -14 -185 -334 -198 -342 -4 -3 -5 32 -4 77 5 97 -17 172 -78 273 -50 81
-156 210 -218 263 l-47 40 -13 -43 c-21 -73 -42 -224 -42 -310 0 -160 32 -258
115 -355 43 -52 110 -113 143 -131 13 -7 10 -17 -23 -62 -60 -83 -228 -289
-232 -285 -2 2 3 29 12 62 33 126 13 251 -65 409 -48 96 -175 285 -197 292
-15 5 -82 -176 -110 -302 -33 -145 -30 -289 8 -380 31 -76 89 -164 145 -220
l44 -43 -139 -134 c-124 -120 -221 -206 -221 -196 0 2 10 31 22 63 48 130 23
305 -69 490 -40 81 -135 235 -144 235 -10 0 -75 -138 -109 -229 -44 -121 -63
-228 -58 -335 3 -84 8 -101 47 -182 23 -49 61 -113 83 -142 24 -30 37 -56 32
-61 -63 -58 -452 -316 -442 -294 2 4 19 40 39 78 88 171 96 299 34 518 -27 94
-99 266 -139 331 l-24 40 -46 -72 c-151 -236 -233 -491 -206 -641 19 -108 80
-254 138 -329 14 -18 23 -35 20 -37 -9 -9 -345 -168 -418 -198 -130 -52 -220
-85 -220 -80 0 2 21 30 46 61 55 68 99 152 119 229 35 136 7 416 -63 622 l-18
54 -67 -74 c-162 -179 -273 -365 -303 -509 -20 -95 -7 -215 37 -340 16 -47 32
-92 35 -101 5 -13 -16 -22 -113 -49 -181 -50 -414 -103 -421 -95 -2 2 23 21
55 43 122 83 199 196 243 353 30 110 50 261 50 377 l0 103 -81 -43 c-110 -59
-273 -182 -353 -269 -121 -131 -174 -288 -163 -484 2 -49 6 -96 8 -104 5 -19
-32 -25 -226 -41 -241 -19 -233 -28 23 -29 146 -1 231 -5 227 -11 -10 -17 15
-179 41 -263 76 -243 195 -373 459 -505 160 -80 465 -177 465 -148 0 25 -59
223 -93 312 -102 267 -238 448 -397 533 -35 19 -109 49 -165 67 -55 18 -93 35
-85 38 8 2 56 10 105 16 71 8 230 38 448 83 5 1 17 -30 27 -69 22 -84 85 -215
146 -300 121 -172 322 -276 645 -334 129 -23 309 -37 309 -23 0 5 -28 65 -63
134 -123 243 -268 430 -411 530 -77 54 -208 102 -311 114 -107 12 -106 15 23
60 154 55 296 113 440 181 74 35 114 49 117 41 2 -7 9 -30 15 -52 18 -59 85
-190 125 -245 108 -147 274 -237 534 -290 100 -20 311 -43 319 -35 9 9 -107
229 -170 325 -35 53 -102 135 -153 185 -130 130 -222 173 -425 199 l-95 12 35
18 c69 36 259 157 354 226 53 38 98 70 100 70 2 0 20 -28 41 -62 22 -35 78
-102 126 -149 69 -69 104 -95 170 -128 125 -61 213 -75 428 -68 151 4 336 26
363 43 13 8 -107 147 -202 236 -101 95 -248 195 -345 234 -64 26 -81 28 -195
29 -69 0 -150 -4 -180 -8 l-55 -8 60 53 c33 28 122 113 198 188 l139 136 92
-90 c157 -156 249 -197 456 -204 150 -5 302 17 459 64 l84 25 -44 46 c-70 72
-240 204 -325 253 -123 71 -220 100 -334 100 -52 0 -122 -7 -155 -15 -33 -8
-66 -14 -73 -15 -6 0 23 44 65 98 43 53 106 136 141 184 l63 87 67 -54 c89
-73 225 -142 315 -162 155 -32 398 17 651 132 92 42 94 34 -33 119 -112 74
-257 148 -361 183 -76 25 -99 28 -210 28 -119 -1 -129 -2 -217 -36 -51 -20
-93 -34 -93 -32 0 2 24 45 54 96 29 51 77 137 106 192 30 55 55 102 56 104 2
2 19 -11 39 -28 40 -35 162 -99 240 -126 175 -60 390 -21 664 121 69 35 136
73 149 82 l23 18 -75 43 c-110 63 -267 126 -386 156 -89 23 -121 26 -210 23
-114 -5 -195 -30 -309 -97 -29 -18 -55 -31 -57 -29 -1 2 12 37 30 78 29 65
123 314 132 347 2 7 26 -1 67 -23 123 -65 303 -92 425 -63 113 27 305 136 443
250 74 62 74 63 -69 108 -192 60 -367 83 -486 62 -82 -14 -184 -64 -261 -127
-31 -25 -59 -44 -61 -41 -2 2 10 57 27 122 17 64 41 166 53 226 12 61 24 110
27 111 2 0 36 -10 74 -22 87 -27 271 -39 342 -21 63 16 173 72 253 129 78 56
278 247 268 257 -23 24 -287 65 -413 65 -182 0 -305 -46 -425 -158 l-73 -67 7
60 c5 51 35 387 36 407 0 3 51 4 114 1 217 -11 319 30 481 192 55 55 126 138
158 185 49 72 55 85 41 93 -9 5 -97 7 -198 4 -159 -4 -192 -8 -271 -31 -49
-15 -108 -38 -131 -51 -41 -24 -174 -158 -174 -175 0 -6 -4 -10 -8 -10 -5 0
-12 66 -16 147 -3 81 -9 179 -13 217 l-6 69 64 -7 c90 -9 233 15 312 52 119
55 260 213 362 405 l47 87 -69 0 c-37 0 -111 -7 -163 -15 -296 -45 -423 -125
-542 -340 -15 -27 -28 -45 -28 -40 0 6 -14 89 -31 185 -17 96 -32 182 -33 190
-1 11 16 16 71 21 82 8 186 39 256 77 64 35 153 131 209 228 47 79 120 250
133 312 6 29 4 32 -17 32 -34 0 -196 -45 -285 -80 -174 -66 -280 -155 -344
-285 -21 -45 -42 -95 -45 -113 -4 -18 -10 -32 -14 -32 -4 0 -15 30 -25 68 -10
37 -38 127 -61 201 -24 74 -44 138 -44 143 0 4 9 8 20 8 69 0 263 108 317 176
80 102 142 284 167 491 8 61 17 61 -111 2 -159 -73 -300 -180 -362 -278 -33
-52 -71 -176 -71 -233 0 -21 -4 -38 -10 -38 -5 0 -10 5 -10 11 0 6 -32 81 -70
167 -39 86 -66 158 -60 160 32 11 135 90 175 134 79 88 109 170 121 327 5 76
-9 277 -21 289 -10 10 -65 -36 -165 -137 -76 -77 -115 -126 -142 -176 -41 -79
-63 -184 -53 -252 3 -24 4 -43 1 -43 -2 0 -27 40 -55 89 l-51 89 12 76 c9 61
9 96 -1 163 -18 126 -48 182 -155 289 -83 82 -246 204 -275 204 -7 0 -11 -25
-11 -73z"/>
</g>
</svg>
