<svg xmlns="http://www.w3.org/2000/svg" viewBox="0 0 35 32">
  <path d="M 9.544 6.48 C 9.544 5.111 10.67 4 12.06 4 C 13.45 4 14.576 5.111 14.576 6.48 C 14.576 7.85 13.45 8.961 12.06 8.961 C 10.67 8.961 9.544 7.85 9.544 6.48 Z" fill="rgb(255,255,255)"/>
  <path d="M 20.425 6.48 C 20.425 5.111 21.552 4 22.942 4 C 24.331 4 25.458 5.111 25.458 6.48 C 25.458 7.85 24.331 8.961 22.942 8.961 C 21.552 8.961 20.425 7.85 20.425 6.48 Z" fill="rgb(255,255,255)"/>
  <path d="M 4.103 16 C 4.103 14.63 5.229 13.52 6.619 13.52 C 8.009 13.52 9.136 14.63 9.136 16 C 9.136 17.37 8.009 18.48 6.619 18.48 C 5.229 18.48 4.103 17.37 4.103 16 Z" fill="rgb(255,255,255)"/>
  <path d="M 14.984 16 C 14.984 14.63 16.111 13.52 17.501 13.52 C 18.891 13.52 20.017 14.63 20.017 16 C 20.017 17.37 18.891 18.48 17.501 18.48 C 16.111 18.48 14.984 17.37 14.984 16 Z" fill="rgb(255,255,255)"/>
  <path d="M 25.866 16 C 25.866 14.63 26.993 13.52 28.383 13.52 C 29.772 13.52 30.899 14.63 30.899 16 C 30.899 17.37 29.772 18.48 28.383 18.48 C 26.993 18.48 25.866 17.37 25.866 16 Z" fill="rgb(255,255,255)"/>
  <path d="M 9.544 25.52 C 9.544 24.15 10.67 23.039 12.06 23.039 C 13.45 23.039 14.576 24.15 14.576 25.52 C 14.576 26.889 13.45 28 12.06 28 C 10.67 28 9.544 26.889 9.544 25.52 Z" fill="rgb(255,255,255)"/>
  <path d="M 20.425 25.52 C 20.425 24.15 21.552 23.039 22.942 23.039 C 24.331 23.039 25.458 24.15 25.458 25.52 C 25.458 26.889 24.331 28 22.942 28 C 21.552 28 20.425 26.889 20.425 25.52 Z" fill="rgb(255,255,255)"/>
</svg>
